<svg xmlns="http://www.w3.org/2000/svg" width="96" height="96" viewBox="0 0 96 96" role="img" aria-label="Sabor Mexicano icon">
  <defs>
    <linearGradient id="gradChili" x1="0" y1="0" x2="1" y2="1">
      <stop offset="0%" stop-color="#C72C41"/>
      <stop offset="100%" stop-color="#921D2D"/>
    </linearGradient>
  </defs>

  <!-- tile background -->
  <rect x="2.5" y="2.5" width="91" height="91" rx="18" ry="18" fill="#F5E6CA" stroke="#264653" stroke-width="5"/>
  <!-- inner accent stroke -->
  <rect x="11" y="11" width="74" height="74" rx="12" ry="12" fill="none" stroke="#F4A261" stroke-width="3" opacity=".7"/>

  <!-- chili curve -->
  <path d="M26,55 C31,39 56,37 63,49 C67,55 60,62 50,66 C44,68 40,69 39,73"
        fill="none" stroke="url(#gradChili)" stroke-width="10" stroke-linecap="round"/>

  <!-- highlight -->
  <path d="M33,48 C41,40 56,41 60,47" fill="none" stroke="#F4A261" stroke-width="3" stroke-linecap="round" opacity=".9"/>

  <!-- stem -->
  <path d="M60,44 C57,39 50,38 46,40" fill="none" stroke="#264653" stroke-width="5" stroke-linecap="round"/>

  <!-- talavera corner dots -->
  <circle cx="16" cy="16" r="3" fill="#F4A261"/>
  <circle cx="80" cy="16" r="3" fill="#F4A261"/>
  <circle cx="16" cy="80" r="3" fill="#F4A261"/>
  <circle cx="80" cy="80" r="3" fill="#F4A261"/>
</svg>
